<svg width="96" height="96" viewBox="0 0 96 96" fill="none" xmlns="http://www.w3.org/2000/svg">
<circle cx="48" cy="48" r="48" fill="#544A4A"/>
<path d="M37.0824 65V61.9318L48.6051 49.3182C49.9574 47.8409 51.071 46.5568 51.946 45.4659C52.821 44.3636 53.4688 43.3295 53.8892 42.3636C54.321 41.3864 54.5369 40.3636 54.5369 39.2955C54.5369 38.0682 54.2415 37.0057 53.6506 36.108C53.071 35.2102 52.2756 34.517 51.2642 34.0284C50.2528 33.5398 49.1165 33.2955 47.8551 33.2955C46.5142 33.2955 45.3438 33.5739 44.3438 34.1307C43.3551 34.6761 42.5881 35.4432 42.0426 36.4318C41.5085 37.4205 41.2415 38.5795 41.2415 39.9091H37.2188C37.2188 37.8636 37.6903 36.0682 38.6335 34.5227C39.5767 32.9773 40.8608 31.7727 42.4858 30.9091C44.1222 30.0455 45.9574 29.6136 47.9915 29.6136C50.0369 29.6136 51.8494 30.0455 53.429 30.9091C55.0085 31.7727 56.2472 32.9375 57.1449 34.4034C58.0426 35.8693 58.4915 37.5 58.4915 39.2955C58.4915 40.5795 58.2585 41.8352 57.7926 43.0625C57.3381 44.2784 56.5426 45.6364 55.4062 47.1364C54.2812 48.625 52.7188 50.4432 50.7188 52.5909L42.8778 60.9773V61.25H59.1051V65H37.0824Z" fill="white"/>
</svg>
